<?xml version="1.0" encoding="UTF-8" standalone="no"?>
<svg
   xmlns:sketch="http://www.bohemiancoding.com/sketch/ns"
   xmlns:dc="http://purl.org/dc/elements/1.1/"
   xmlns:cc="http://creativecommons.org/ns#"
   xmlns:rdf="http://www.w3.org/1999/02/22-rdf-syntax-ns#"
   xmlns:svg="http://www.w3.org/2000/svg"
   xmlns="http://www.w3.org/2000/svg"
   xmlns:sodipodi="http://sodipodi.sourceforge.net/DTD/sodipodi-0.dtd"
   xmlns:inkscape="http://www.inkscape.org/namespaces/inkscape"
   width="60px"
   height="60px"
   viewBox="0 0 60 60"
   version="1.1"
   id="svg2"
   inkscape:version="0.48.4 r9939"
   sodipodi:docname="JPG.svg">
  <metadata
     id="metadata24">
    <rdf:RDF>
      <cc:Work
         rdf:about="">
        <dc:format>image/svg+xml</dc:format>
        <dc:type
           rdf:resource="http://purl.org/dc/dcmitype/StillImage" />
      </cc:Work>
    </rdf:RDF>
  </metadata>
  <sodipodi:namedview
     pagecolor="#ffffff"
     bordercolor="#666666"
     borderopacity="1"
     objecttolerance="10"
     gridtolerance="10"
     guidetolerance="10"
     inkscape:pageopacity="0"
     inkscape:pageshadow="2"
     inkscape:window-width="1631"
     inkscape:window-height="1026"
     id="namedview22"
     showgrid="false"
     inkscape:zoom="3.9333333"
     inkscape:cx="-9.279661"
     inkscape:cy="30"
     inkscape:window-x="49"
     inkscape:window-y="139"
     inkscape:window-maximized="1"
     inkscape:current-layer="svg2" />
  <!-- Generator: Sketch 3.2.2 (9983) - http://www.bohemiancoding.com/sketch -->
  <title
     id="title4">JPG</title>
  <desc
     id="desc6">Created with Sketch.</desc>
  <defs
     id="defs8" />
  <g
     id="colored"
     stroke="none"
     stroke-width="1"
     fill="none"
     fill-rule="evenodd"
     sketch:type="MSPage"
     style="stroke-width:1;stroke-miterlimit:4;stroke-dasharray:none">
    <g
       id="Formats_sliced"
       sketch:type="MSLayerGroup"
       transform="translate(0.000000, -600.000000)"
       style="stroke-width:1;stroke-miterlimit:4;stroke-dasharray:none" />
    <g
       id="Formats"
       sketch:type="MSLayerGroup"
       transform="translate(4.000000, -593.000000)"
       style="stroke-width:1;stroke-miterlimit:4;stroke-dasharray:none">
      <g
         id="MP3"
         transform="translate(3.000000, 600.000000)"
         sketch:type="MSShapeGroup"
         style="stroke-width:1;stroke-miterlimit:4;stroke-dasharray:none">
        <path
           d="M40,40 L40,46 L6,46 L6,40 M6,21 L6,0 L31,0 L40,9 L40,21"
           id="Rectangle-1948"
           stroke="#314E55"
           stroke-width="2"
           stroke-linecap="round"
           stroke-linejoin="round"
           fill="#EAEAEA"
           style="stroke-width:1;stroke-miterlimit:4;stroke-dasharray:none" />
        <rect
           id="Rectangle-1949"
           stroke="#314E55"
           stroke-width="2"
           stroke-linecap="round"
           stroke-linejoin="round"
           fill="#C59981"
           x="0"
           y="21"
           width="46"
           height="19"
           style="stroke-width:1;stroke-miterlimit:4;stroke-dasharray:none" />
        <path
           d="M40,21 L46,21 L40,15 L40,21 Z"
           id="Path-4339"
           stroke="#314E55"
           stroke-width="2"
           stroke-linecap="round"
           stroke-linejoin="round"
           style="stroke-width:1;stroke-miterlimit:4;stroke-dasharray:none" />
        <path
           d="M31,9 L40,9 L31,0 L31,9 Z"
           id="path17"
           stroke="#314E55"
           stroke-width="2"
           stroke-linecap="round"
           stroke-linejoin="round"
           fill="#D8D8D8"
           style="stroke-width:1;stroke-miterlimit:4;stroke-dasharray:none" />
        <path
           d="M0,21 L6,21 L0,15 L0,21 Z"
           id="path19"
           stroke="#314E55"
           stroke-width="2"
           stroke-linecap="round"
           stroke-linejoin="round"
           transform="translate(3.000000, 18.000000) scale(-1, 1) translate(-3.000000, -18.000000) "
           style="stroke-width:1;stroke-miterlimit:4;stroke-dasharray:none" />
        <path
           d="M16.523,33.498 C16.523,34.6993393 16.2708359,35.63433 15.7665,36.303 C15.2621641,36.97167 14.471672,37.306 13.395,37.306 C12.6129961,37.306 11.9670025,37.0935021 11.457,36.6685 C10.9469974,36.2434979 10.6070008,35.6740036 10.437,34.96 L12.137,34.229 C12.2050003,34.5236681 12.3381657,34.7928321 12.5365,35.0365 C12.7348343,35.2801679 12.9983317,35.402 13.327,35.402 C13.791669,35.402 14.1033325,35.2150019 14.262,34.841 C14.4206675,34.4669981 14.5,33.9570032 14.5,33.311 L14.5,24.964 L16.523,24.964 L16.523,33.498 Z M25.618,28.517 C25.618,29.1290031 25.5245009,29.6644977 25.3375,30.1235 C25.1504991,30.5825023 24.9040015,30.9649985 24.598,31.271 C24.2919985,31.5770015 23.9406686,31.8036659 23.544,31.951 C23.1473314,32.0983341 22.7393354,32.172 22.32,32.172 L20.892,32.172 L20.892,37 L18.886,37 L18.886,24.964 L22.218,24.964 C22.6033353,24.964 22.999998,25.0206661 23.408,25.134 C23.816002,25.2473339 24.1814984,25.4428319 24.5045,25.7205 C24.8275016,25.9981681 25.0938323,26.3636644 25.3035,26.817 C25.5131677,27.2703356 25.618,27.8369966 25.618,28.517 L25.618,28.517 Z M23.68,28.534 C23.68,27.8879968 23.5270015,27.4176681 23.221,27.123 C22.9149985,26.8283319 22.5240024,26.681 22.048,26.681 L20.892,26.681 L20.892,30.506 L22.048,30.506 C22.5240024,30.506 22.9149985,30.338835 23.221,30.0045 C23.5270015,29.670165 23.68,29.1800032 23.68,28.534 L23.68,28.534 Z M34.458,36.269 C34.0953315,36.5636681 33.6618359,36.8016658 33.1575,36.983 C32.6531641,37.1643342 32.0496702,37.255 31.347,37.255 C30.6329964,37.255 29.9926695,37.1048348 29.426,36.8045 C28.8593305,36.5041652 28.380502,36.0763361 27.9895,35.521 C27.598498,34.9656639 27.2981677,34.3026705 27.0885,33.532 C26.8788323,32.7613295 26.774,31.9056714 26.774,30.965 C26.774,30.0469954 26.875999,29.2026705 27.08,28.432 C27.284001,27.6613295 27.5786647,26.9955028 27.964,26.4345 C28.3493353,25.8734972 28.8139973,25.4371682 29.358,25.1255 C29.9020027,24.8138318 30.5139966,24.658 31.194,24.658 C31.9080036,24.658 32.5256641,24.7854987 33.047,25.0405 C33.5683359,25.2955013 33.9933317,25.655331 34.322,26.12 L33.149,27.548 C32.6956644,26.8906634 32.0836705,26.562 31.313,26.562 C30.8936646,26.562 30.5281682,26.6809988 30.2165,26.919 C29.9048318,27.1570012 29.647001,27.4771647 29.443,27.8795 C29.238999,28.2818353 29.0860005,28.7493307 28.984,29.282 C28.8819995,29.8146693 28.831,30.3756637 28.831,30.965 C28.831,31.5770031 28.8819995,32.152164 28.984,32.6905 C29.0860005,33.228836 29.238999,33.6991647 29.443,34.1015 C29.647001,34.5038353 29.9048318,34.8183322 30.2165,35.045 C30.5281682,35.2716678 30.8993312,35.385 31.33,35.385 C31.6020014,35.385 31.8484989,35.3538336 32.0695,35.2915 C32.2905011,35.2291664 32.4689993,35.1470005 32.605,35.045 L32.605,31.934 L31.143,31.934 L31.143,30.166 L34.458,30.166 L34.458,36.269 Z"
           id="JPG"
           fill="#314E55"
           style="stroke-width:1;stroke-miterlimit:4;stroke-dasharray:none" />
      </g>
    </g>
  </g>
</svg>
