<?xml version="1.0" encoding="UTF-8" standalone="no"?>
<svg
   xmlns:sketch="http://www.bohemiancoding.com/sketch/ns"
   xmlns:dc="http://purl.org/dc/elements/1.1/"
   xmlns:cc="http://creativecommons.org/ns#"
   xmlns:rdf="http://www.w3.org/1999/02/22-rdf-syntax-ns#"
   xmlns:svg="http://www.w3.org/2000/svg"
   xmlns="http://www.w3.org/2000/svg"
   xmlns:sodipodi="http://sodipodi.sourceforge.net/DTD/sodipodi-0.dtd"
   xmlns:inkscape="http://www.inkscape.org/namespaces/inkscape"
   width="60px"
   height="60px"
   viewBox="0 0 60 60"
   version="1.1"
   id="svg2"
   inkscape:version="0.48.4 r9939"
   sodipodi:docname="MOV.svg">
  <metadata
     id="metadata25">
    <rdf:RDF>
      <cc:Work
         rdf:about="">
        <dc:format>image/svg+xml</dc:format>
        <dc:type
           rdf:resource="http://purl.org/dc/dcmitype/StillImage" />
      </cc:Work>
    </rdf:RDF>
  </metadata>
  <sodipodi:namedview
     pagecolor="#ffffff"
     bordercolor="#666666"
     borderopacity="1"
     objecttolerance="10"
     gridtolerance="10"
     guidetolerance="10"
     inkscape:pageopacity="0"
     inkscape:pageshadow="2"
     inkscape:window-width="1871"
     inkscape:window-height="1056"
     id="namedview23"
     showgrid="false"
     inkscape:zoom="3.9333333"
     inkscape:cx="-9.279661"
     inkscape:cy="30"
     inkscape:window-x="1729"
     inkscape:window-y="24"
     inkscape:window-maximized="1"
     inkscape:current-layer="svg2" />
  <!-- Generator: Sketch 3.2.2 (9983) - http://www.bohemiancoding.com/sketch -->
  <title
     id="title4">MOV</title>
  <desc
     id="desc6">Created with Sketch.</desc>
  <defs
     id="defs8" />
  <g
     id="colored"
     stroke="none"
     stroke-width="1"
     fill="none"
     fill-rule="evenodd"
     sketch:type="MSPage"
     style="stroke-width:1;stroke-miterlimit:4;stroke-dasharray:none">
    <g
       id="Formats_sliced"
       sketch:type="MSLayerGroup"
       transform="translate(-240.000000, -480.000000)"
       style="stroke-width:1;stroke-miterlimit:4;stroke-dasharray:none" />
    <g
       id="Formats"
       sketch:type="MSLayerGroup"
       transform="translate(-236.000000, -473.000000)"
       style="stroke-width:1;stroke-miterlimit:4;stroke-dasharray:none">
      <g
         id="MOV"
         transform="translate(243.000000, 480.000000)"
         sketch:type="MSShapeGroup"
         style="stroke-width:1;stroke-miterlimit:4;stroke-dasharray:none">
        <path
           d="M40,40 L40,46 L6,46 L6,40 M6,21 L6,0 L31,0 L40,9 L40,21"
           id="Rectangle-1948"
           stroke="#314E55"
           stroke-width="2"
           stroke-linecap="round"
           stroke-linejoin="round"
           fill="#EAEAEA"
           style="stroke-width:1;stroke-miterlimit:4;stroke-dasharray:none" />
        <rect
           id="Rectangle-1949"
           stroke="#314E55"
           stroke-width="2"
           stroke-linecap="round"
           stroke-linejoin="round"
           fill="#E4AD40"
           x="0"
           y="21"
           width="46"
           height="19"
           style="stroke-width:1;stroke-miterlimit:4;stroke-dasharray:none" />
        <path
           d="M40,21 L46,21 L40,15 L40,21 Z"
           id="Path-4339"
           stroke="#314E55"
           stroke-width="2"
           stroke-linecap="round"
           stroke-linejoin="round"
           style="stroke-width:1;stroke-miterlimit:4;stroke-dasharray:none" />
        <path
           d="M31,9 L40,9 L31,0 L31,9 Z"
           id="path17"
           stroke="#314E55"
           stroke-width="2"
           stroke-linecap="round"
           stroke-linejoin="round"
           fill="#D8D8D8"
           style="stroke-width:1;stroke-miterlimit:4;stroke-dasharray:none" />
        <path
           d="M0,21 L6,21 L0,15 L0,21 Z"
           id="path19"
           stroke="#314E55"
           stroke-width="2"
           stroke-linecap="round"
           stroke-linejoin="round"
           transform="translate(3.000000, 18.000000) scale(-1, 1) translate(-3.000000, -18.000000) "
           style="stroke-width:1;stroke-miterlimit:4;stroke-dasharray:none" />
        <path
           d="M16.863,37 L16.897,27.752 L16.846,27.752 L14.432,37 L12.834,37 L10.471,27.752 L10.42,27.752 L10.454,37 L8.601,37 L8.601,24.964 L11.338,24.964 L13.65,33.77 L13.718,33.77 L15.979,24.964 L18.852,24.964 L18.852,37 L16.863,37 Z M29.426,30.965 C29.426,31.9170048 29.3268343,32.7811628 29.1285,33.5575 C28.9301657,34.3338372 28.6440019,34.9996639 28.27,35.555 C27.8959981,36.1103361 27.439836,36.5409985 26.9015,36.847 C26.363164,37.1530015 25.75967,37.306 25.091,37.306 C24.4109966,37.306 23.8046693,37.1530015 23.272,36.847 C22.7393307,36.5409985 22.2860019,36.1103361 21.912,35.555 C21.5379981,34.9996639 21.2518343,34.3338372 21.0535,33.5575 C20.8551657,32.7811628 20.756,31.9170048 20.756,30.965 C20.756,30.0129952 20.8523324,29.1516705 21.045,28.381 C21.2376676,27.6103295 21.5209981,26.9473361 21.895,26.392 C22.2690019,25.8366639 22.725164,25.4088348 23.2635,25.1085 C23.801836,24.8081652 24.4109966,24.658 25.091,24.658 C25.75967,24.658 26.363164,24.8081652 26.9015,25.1085 C27.439836,25.4088348 27.8959981,25.8366639 28.27,26.392 C28.6440019,26.9473361 28.9301657,27.6103295 29.1285,28.381 C29.3268343,29.1516705 29.426,30.0129952 29.426,30.965 L29.426,30.965 Z M27.318,30.965 C27.318,30.3529969 27.2698338,29.777836 27.1735,29.2395 C27.0771662,28.701164 26.9355009,28.236502 26.7485,27.8455 C26.5614991,27.454498 26.3291681,27.1456678 26.0515,26.919 C25.7738319,26.6923322 25.4536685,26.579 25.091,26.579 C24.7169981,26.579 24.3911681,26.6923322 24.1135,26.919 C23.8358319,27.1456678 23.6035009,27.454498 23.4165,27.8455 C23.2294991,28.236502 23.0906671,28.701164 23,29.2395 C22.9093329,29.777836 22.864,30.3529969 22.864,30.965 C22.864,31.5770031 22.9093329,32.152164 23,32.6905 C23.0906671,33.228836 23.2294991,33.6963313 23.4165,34.093 C23.6035009,34.4896686 23.8358319,34.8013322 24.1135,35.028 C24.3911681,35.2546678 24.7169981,35.368 25.091,35.368 C25.4650019,35.368 25.7908319,35.2546678 26.0685,35.028 C26.3461681,34.8013322 26.5784991,34.4896686 26.7655,34.093 C26.9525009,33.6963313 27.0913329,33.228836 27.182,32.6905 C27.2726671,32.152164 27.318,31.5770031 27.318,30.965 L27.318,30.965 Z M35.58,37 L32.996,37 L30.055,24.964 L32.333,24.964 L34.339,34.62 L34.39,34.62 L36.396,24.964 L38.572,24.964 L35.58,37 Z"
           fill="#314E55"
           id="path21"
           style="stroke-width:1;stroke-miterlimit:4;stroke-dasharray:none" />
      </g>
    </g>
  </g>
</svg>
