<?xml version="1.0" encoding="UTF-8" standalone="no"?>
<svg
   xmlns:sketch="http://www.bohemiancoding.com/sketch/ns"
   xmlns:dc="http://purl.org/dc/elements/1.1/"
   xmlns:cc="http://creativecommons.org/ns#"
   xmlns:rdf="http://www.w3.org/1999/02/22-rdf-syntax-ns#"
   xmlns:svg="http://www.w3.org/2000/svg"
   xmlns="http://www.w3.org/2000/svg"
   xmlns:sodipodi="http://sodipodi.sourceforge.net/DTD/sodipodi-0.dtd"
   xmlns:inkscape="http://www.inkscape.org/namespaces/inkscape"
   width="60px"
   height="60px"
   viewBox="0 0 60 60"
   version="1.1"
   id="svg2"
   inkscape:version="0.48.4 r9939"
   sodipodi:docname="Singing.svg">
  <metadata
     id="metadata35">
    <rdf:RDF>
      <cc:Work
         rdf:about="">
        <dc:format>image/svg+xml</dc:format>
        <dc:type
           rdf:resource="http://purl.org/dc/dcmitype/StillImage" />
      </cc:Work>
    </rdf:RDF>
  </metadata>
  <sodipodi:namedview
     pagecolor="#ffffff"
     bordercolor="#666666"
     borderopacity="1"
     objecttolerance="10"
     gridtolerance="10"
     guidetolerance="10"
     inkscape:pageopacity="0"
     inkscape:pageshadow="2"
     inkscape:window-width="1871"
     inkscape:window-height="1056"
     id="namedview33"
     showgrid="false"
     inkscape:zoom="3.9333333"
     inkscape:cx="-9.5338983"
     inkscape:cy="30"
     inkscape:window-x="1729"
     inkscape:window-y="24"
     inkscape:window-maximized="1"
     inkscape:current-layer="svg2" />
  <!-- Generator: Sketch 3.2.2 (9983) - http://www.bohemiancoding.com/sketch -->
  <title
     id="title4">Singing</title>
  <desc
     id="desc6">Created with Sketch.</desc>
  <defs
     id="defs8" />
  <g
     id="colored"
     sketch:type="MSPage"
     transform="translate(0.6983202,0.31559761)"
     style="fill:none;stroke:none;stroke-width:1;stroke-miterlimit:4;stroke-dasharray:none">
    <g
       id="Activities_sliced"
       sketch:type="MSLayerGroup"
       transform="translate(-480,-1560)"
       style="stroke-width:1;stroke-miterlimit:4;stroke-dasharray:none" />
    <g
       id="Activities"
       sketch:type="MSLayerGroup"
       transform="translate(-494,-1558)"
       style="stroke:#314e55;stroke-width:1;stroke-linejoin:round;stroke-miterlimit:4;stroke-dasharray:none">
      <g
         id="Singing"
         transform="translate(490,1556)"
         sketch:type="MSShapeGroup"
         style="stroke-width:1;stroke-miterlimit:4;stroke-dasharray:none">
        <g
           id="Group"
           transform="matrix(0.60181502,0.79863551,-0.79863551,0.60181502,52.729336,0.58751285)"
           style="stroke-width:1;stroke-miterlimit:4;stroke-dasharray:none">
          <path
             d="M 12.898983,14.386148 C 14.195533,12.903879 15,10.837951 15,8.5528152 15,4.0424897 11.865993,0.38614851 8,0.38614851 c -3.8659933,0 -7,3.65634119 -7,8.16666669 0,2.2851358 0.8044672,4.3510638 2.1010173,5.8333328 l 9.7979657,0 z"
             id="Oval-975"
             inkscape:connector-curvature="0"
             style="fill:#5ecb66;stroke-linecap:round;stroke-width:1;stroke-miterlimit:4;stroke-dasharray:none" />
          <rect
             id="Rectangle-1189"
             x="4"
             y="14.386148"
             width="8"
             height="4"
             style="fill:#d8d8d8;stroke-linecap:round;stroke-width:1;stroke-miterlimit:4;stroke-dasharray:none" />
          <path
             d="m 4,18.386148 8,0 -1,26 -6,0 -1,-26 z"
             id="path17"
             inkscape:connector-curvature="0"
             style="fill:#e4ad40;stroke-linecap:round;stroke-width:1;stroke-miterlimit:4;stroke-dasharray:none" />
          <rect
             id="Rectangle-1191"
             x="6"
             y="44.38615"
             width="4"
             height="4"
             style="fill:#d8d8d8;stroke-linecap:round;stroke-width:1;stroke-miterlimit:4;stroke-dasharray:none" />
          <rect
             id="Rectangle-1192"
             x="5"
             y="4.3861485"
             width="2"
             height="2"
             style="stroke-linecap:round;stroke-width:1;stroke-miterlimit:4;stroke-dasharray:none" />
          <rect
             id="Rectangle-1193"
             x="9"
             y="4.3861485"
             width="2"
             height="2"
             style="stroke-linecap:round;stroke-width:1;stroke-miterlimit:4;stroke-dasharray:none" />
          <rect
             id="Rectangle-1194"
             x="7"
             y="8.3861485"
             width="2"
             height="2"
             style="stroke-linecap:round;stroke-width:1;stroke-miterlimit:4;stroke-dasharray:none" />
          <path
             d="m 8,48.386148 0,10"
             id="Line"
             inkscape:connector-curvature="0"
             style="stroke-linecap:square;stroke-width:1;stroke-miterlimit:4;stroke-dasharray:none" />
          <path
             d="m 8,59.386148 c 0,2.761424 2.238576,5.000001 5,5.000001 2.761424,0 5,-2.238577 5,-5.000001"
             id="Oval-976"
             inkscape:connector-curvature="0"
             style="stroke-linecap:round;stroke-width:1;stroke-miterlimit:4;stroke-dasharray:none" />
          <path
             d="m 18,54.386148 c 0,2.761424 2.238576,5 5,5 2.761424,0 5,-2.238576 5,-5"
             id="path25"
             transform="matrix(-1,0,0,-1,46,113.7723)"
             inkscape:connector-curvature="0"
             style="stroke-linecap:round;stroke-width:1;stroke-miterlimit:4;stroke-dasharray:none" />
        </g>
        <ellipse
           id="ellipse27"
           cx="40"
           cy="47.5"
           rx="4"
           ry="2.5"
           d="m 44,47.5 c 0,1.380712 -1.790861,2.5 -4,2.5 -2.209139,0 -4,-1.119288 -4,-2.5 0,-1.380712 1.790861,-2.5 4,-2.5 2.209139,0 4,1.119288 4,2.5 z"
           sodipodi:cx="40"
           sodipodi:cy="47.5"
           sodipodi:rx="4"
           sodipodi:ry="2.5"
           style="fill:#d8d8d8;stroke-linecap:round;stroke-width:1;stroke-miterlimit:4;stroke-dasharray:none" />
        <path
           d="M 44,47 44,34.958405"
           id="path29"
           inkscape:connector-curvature="0"
           style="stroke-linecap:round;stroke-width:1;stroke-miterlimit:4;stroke-dasharray:none" />
        <ellipse
           id="Oval-977"
           cx="51"
           cy="50.5"
           rx="4"
           ry="2.5"
           d="m 55,50.5 c 0,1.380712 -1.790861,2.5 -4,2.5 -2.209139,0 -4,-1.119288 -4,-2.5 0,-1.380712 1.790861,-2.5 4,-2.5 2.209139,0 4,1.119288 4,2.5 z"
           sodipodi:cx="51"
           sodipodi:cy="50.5"
           sodipodi:rx="4"
           sodipodi:ry="2.5"
           style="fill:#d8d8d8;stroke-linecap:round;stroke-width:1;stroke-miterlimit:4;stroke-dasharray:none" />
        <path
           d="M 55,50 55,37.958405 44.160902,34.931265"
           id="Line-273"
           inkscape:connector-curvature="0"
           style="stroke-linecap:round;stroke-width:1;stroke-miterlimit:4;stroke-dasharray:none" />
      </g>
    </g>
  </g>
</svg>
