<?xml version="1.0" encoding="UTF-8" standalone="no"?>
<!-- Generated by IcoMoon.io -->

<svg
   xmlns:dc="http://purl.org/dc/elements/1.1/"
   xmlns:cc="http://creativecommons.org/ns#"
   xmlns:rdf="http://www.w3.org/1999/02/22-rdf-syntax-ns#"
   xmlns:svg="http://www.w3.org/2000/svg"
   xmlns="http://www.w3.org/2000/svg"
   xmlns:sodipodi="http://sodipodi.sourceforge.net/DTD/sodipodi-0.dtd"
   xmlns:inkscape="http://www.inkscape.org/namespaces/inkscape"
   version="1.1"
   width="64"
   height="64"
   viewBox="0 0 64 64"
   id="svg2"
   inkscape:version="0.48.4 r9939"
   sodipodi:docname="0014-image.svg">
  <metadata
     id="metadata14">
    <rdf:RDF>
      <cc:Work
         rdf:about="">
        <dc:format>image/svg+xml</dc:format>
        <dc:type
           rdf:resource="http://purl.org/dc/dcmitype/StillImage" />
      </cc:Work>
    </rdf:RDF>
  </metadata>
  <defs
     id="defs12" />
  <sodipodi:namedview
     pagecolor="#ffffff"
     bordercolor="#666666"
     borderopacity="1"
     objecttolerance="10"
     gridtolerance="10"
     guidetolerance="10"
     inkscape:pageopacity="0"
     inkscape:pageshadow="2"
     inkscape:window-width="1871"
     inkscape:window-height="1056"
     id="namedview10"
     showgrid="false"
     inkscape:zoom="10.429825"
     inkscape:cx="34.22787"
     inkscape:cy="35.674361"
     inkscape:window-x="1729"
     inkscape:window-y="24"
     inkscape:window-maximized="1"
     inkscape:current-layer="svg2" />
  <path
     d="M 57.673555,54.83301 H 6.5131516 V 46.818491 L 21.434936,22.774935 38.488404,42.811232 H 42.75177 L 57.673555,30.789453 z"
     id="path8"
     inkscape:connector-curvature="0"
     style="fill:#3bba3b;fill-opacity:1;stroke:#314e55;stroke-width:1;stroke-miterlimit:4;stroke-opacity:1;stroke-dasharray:none" />
  <path
     d="m 50.915254,19.627119 c 0,3.314 -2.686,6 -6,6 -3.314,0 -6,-2.686 -6,-6 0,-3.314 2.686,-6 6,-6 3.314,0 6,2.686 6,6 z"
     id="path6"
     inkscape:connector-curvature="0"
     style="fill:#ffb400;stroke:#314e55;stroke-opacity:1;fill-opacity:1" />
  <rect
     style="fill:#800000;fill-opacity:0;stroke:#314e55;stroke-width:1.25;stroke-opacity:1;stroke-miterlimit:4;stroke-dasharray:none"
     id="rect3795"
     width="51.177452"
     height="45.808239"
     x="6.4827595"
     y="9.024394" />
  <path
     style="fill:#ffffff;fill-opacity:1;stroke:none;stroke-width:0.09587888000000000;stroke-linecap:butt;stroke-miterlimit:4;stroke-opacity:1;stroke-dasharray:none;stroke-dashoffset:0"
     d="m 7.057959,27.199062 -0.00217,-17.6656847 25.024811,0 25.024812,0 -0.02439,10.5161887 -0.02439,10.51619 -7.23532,5.83116 -7.23532,5.831161 -1.92865,0 -1.928649,0 -8.651128,-10.163162 c -4.75812,-5.589739 -8.680969,-10.161372 -8.717442,-10.159186 -0.03647,0.0022 -3.129645,4.946771 -6.873716,10.987967 -3.74407,6.041197 -6.9466497,11.206082 -7.1168421,11.477523 L 7.0601245,44.864747 7.057959,27.199062 z m 39.591493,-1.283855 c 1.147042,-0.302487 1.956169,-0.782326 2.88287,-1.709639 0.609083,-0.609485 0.908324,-1.000793 1.175208,-1.536783 0.933988,-1.875757 0.982401,-4.020212 0.130894,-5.797922 -0.698023,-1.457279 -1.65312,-2.42352 -3.082044,-3.118002 -2.509166,-1.219501 -5.474252,-0.722256 -7.430613,1.246113 -1.283212,1.291088 -1.823441,2.510331 -1.896728,4.28072 -0.05475,1.322521 0.125183,2.223028 0.653931,3.272778 1.421118,2.821417 4.474088,4.178233 7.566482,3.362735 z"
     id="path3801"
     inkscape:connector-curvature="0" />
</svg>
