<?xml version="1.0" encoding="UTF-8" standalone="no"?>
<!-- Generated by IcoMoon.io -->

<svg
   xmlns:dc="http://purl.org/dc/elements/1.1/"
   xmlns:cc="http://creativecommons.org/ns#"
   xmlns:rdf="http://www.w3.org/1999/02/22-rdf-syntax-ns#"
   xmlns:svg="http://www.w3.org/2000/svg"
   xmlns="http://www.w3.org/2000/svg"
   xmlns:sodipodi="http://sodipodi.sourceforge.net/DTD/sodipodi-0.dtd"
   xmlns:inkscape="http://www.inkscape.org/namespaces/inkscape"
   version="1.1"
   width="64"
   height="64"
   viewBox="0 0 64 64"
   id="svg2"
   inkscape:version="0.48.4 r9939"
   sodipodi:docname="0018-music.svg">
  <metadata
     id="metadata10">
    <rdf:RDF>
      <cc:Work
         rdf:about="">
        <dc:format>image/svg+xml</dc:format>
        <dc:type
           rdf:resource="http://purl.org/dc/dcmitype/StillImage" />
      </cc:Work>
    </rdf:RDF>
  </metadata>
  <defs
     id="defs8" />
  <sodipodi:namedview
     pagecolor="#ffffff"
     bordercolor="#666666"
     borderopacity="1"
     objecttolerance="10"
     gridtolerance="10"
     guidetolerance="10"
     inkscape:pageopacity="0"
     inkscape:pageshadow="2"
     inkscape:window-width="1871"
     inkscape:window-height="1056"
     id="namedview6"
     showgrid="false"
     inkscape:zoom="10.429825"
     inkscape:cx="67.798851"
     inkscape:cy="28.580889"
     inkscape:window-x="1729"
     inkscape:window-y="24"
     inkscape:window-maximized="1"
     inkscape:current-layer="svg2" />
  <path
     d="m 54.254183,6.0579217 h 3.224758 V 43.142641 c 0,4.452586 -5.053196,8.061897 -11.286654,8.061897 -6.233458,0 -11.286654,-3.609311 -11.286654,-8.061897 0,-4.452584 5.053196,-8.061895 11.286654,-8.061895 3.158651,0 6.013368,0.927118 8.061896,2.420181 V 18.956148 l -25.798067,5.732815 v 24.90239 c 0,4.452584 -5.053196,8.061895 -11.286653,8.061895 -6.233459,0 -11.2866552,-3.609311 -11.2866552,-8.061895 0,-4.452586 5.0531962,-8.061897 11.2866552,-8.061897 3.15865,0 6.013367,0.927119 8.061895,2.420181 V 12.506633 L 54.254183,6.0571157 z"
     id="path4"
     inkscape:connector-curvature="0"
     style="fill:#ea86a5;fill-opacity:1;stroke:#000000;stroke-width:0.84937829;stroke-opacity:1" />
</svg>
