<?xml version="1.0" encoding="UTF-8" standalone="no"?>
<!-- Generated by IcoMoon.io -->

<svg
   xmlns:dc="http://purl.org/dc/elements/1.1/"
   xmlns:cc="http://creativecommons.org/ns#"
   xmlns:rdf="http://www.w3.org/1999/02/22-rdf-syntax-ns#"
   xmlns:svg="http://www.w3.org/2000/svg"
   xmlns="http://www.w3.org/2000/svg"
   xmlns:sodipodi="http://sodipodi.sourceforge.net/DTD/sodipodi-0.dtd"
   xmlns:inkscape="http://www.inkscape.org/namespaces/inkscape"
   version="1.1"
   width="64"
   height="64"
   viewBox="0 0 64 64"
   id="svg2"
   inkscape:version="0.48.4 r9939"
   sodipodi:docname="0041-file-music.svg">
  <metadata
     id="metadata12">
    <rdf:RDF>
      <cc:Work
         rdf:about="">
        <dc:format>image/svg+xml</dc:format>
        <dc:type
           rdf:resource="http://purl.org/dc/dcmitype/StillImage" />
      </cc:Work>
    </rdf:RDF>
  </metadata>
  <defs
     id="defs10" />
  <sodipodi:namedview
     pagecolor="#ffffff"
     bordercolor="#666666"
     borderopacity="1"
     objecttolerance="10"
     gridtolerance="10"
     guidetolerance="10"
     inkscape:pageopacity="0"
     inkscape:pageshadow="2"
     inkscape:window-width="1631"
     inkscape:window-height="1026"
     id="namedview8"
     showgrid="false"
     inkscape:zoom="7.375"
     inkscape:cx="2.5325493"
     inkscape:cy="24.334678"
     inkscape:window-x="49"
     inkscape:window-y="139"
     inkscape:window-maximized="1"
     inkscape:current-layer="svg2" />
  <rect
     style="fill:#ffffff;fill-opacity:1;stroke:none;stroke-width:0.13530882999999999;stroke-linecap:butt;stroke-miterlimit:4;stroke-opacity:1;stroke-dasharray:none;stroke-dashoffset:0"
     id="rect3759"
     width="31.012217"
     height="16.88253"
     x="10.324402"
     y="6.6644578"
     ry="0" />
  <rect
     style="fill:#ffffff;fill-opacity:1;stroke:none;stroke-width:0.08339907000000001;stroke-linecap:butt;stroke-miterlimit:4;stroke-opacity:1;stroke-dasharray:none;stroke-dashoffset:0"
     id="rect3757"
     width="46.11829"
     height="42.059937"
     x="9.4832306"
     y="17.478508" />
  <rect
     style="fill:#ffffff;fill-opacity:1;stroke:none;stroke-width:0.10000000000000001;stroke-linecap:butt;stroke-miterlimit:4;stroke-opacity:1;stroke-dasharray:none;stroke-dashoffset:0"
     id="rect3761"
     width="9.6271191"
     height="4.7457628"
     x="42.847458"
     y="12.881356" />
  <rect
     style="fill:#ffffff;fill-opacity:1;stroke:none;stroke-width:0.10000000000000001;stroke-linecap:butt;stroke-miterlimit:4;stroke-opacity:1;stroke-dasharray:none;stroke-dashoffset:0"
     id="rect3765"
     width="5.5593219"
     height="5.4237289"
     x="42.440678"
     y="7.8644066" />
  <path
     d="M 55.694555,16.47823 C 54.427543,14.750237 52.661211,12.730138 50.720528,10.790368 48.779845,8.8505985 46.760659,7.0842664 45.032666,5.8163414 42.090605,3.6584044 40.662935,3.409201 39.845036,3.409201 H 11.547215 c -2.5166799,0 -4.5641642,2.0474843 -4.5641642,4.5641645 V 57.266343 c 0,2.516681 2.0474843,4.564165 4.5641642,4.564165 H 53.53753 c 2.516681,0 4.564165,-2.047484 4.564165,-4.564165 V 21.665859 c 0,-0.817898 -0.249203,-2.244656 -2.40714,-5.187629 v 0 z m -7.555519,-3.106371 c 1.751727,1.751726 3.126453,3.33184 4.140611,4.642668 H 43.496368 V 9.2312495 c 1.310828,1.0141565 2.890942,2.3888835 4.642668,4.1406095 v 0 z m 6.311327,43.894484 c 0,0.494756 -0.418077,0.912833 -0.912833,0.912833 H 11.547215 c -0.494755,0 -0.912832,-0.418077 -0.912832,-0.912833 V 7.9733655 c 0,-0.4947553 0.418077,-0.9128328 0.912832,-0.9128328 0,0 28.295083,0 28.297821,0 V 19.840193 c 0,1.008681 0.816986,1.825666 1.825666,1.825666 h 12.779661 v 35.600484 z"
     id="path4"
     inkscape:connector-curvature="0"
     style="fill:#0086b3;stroke:#000000;stroke-opacity:1;fill-opacity:1" />
  <path
     d="m 44.17733,31.082177 c -0.346557,-0.284431 -0.803144,-0.398204 -1.242516,-0.310629 l -14.970072,2.994015 c -0.699852,0.13997 -1.203595,0.754491 -1.203595,1.467815 v 11.081597 c -0.880988,-0.382486 -1.902695,-0.602545 -2.994013,-0.602545 -3.30689,0 -5.98803,2.01048 -5.98803,4.491021 0,2.480541 2.68114,4.491022 5.98803,4.491022 3.306888,0 5.988028,-2.010481 5.988028,-4.491022 V 39.454939 L 41.73122,37.059727 v 6.261233 c -0.880988,-0.382485 -1.902696,-0.602545 -2.994014,-0.602545 -3.306889,0 -5.988029,2.01048 -5.988029,4.491021 0,2.480542 2.68114,4.491022 5.988029,4.491022 3.306888,0 5.988028,-2.01048 5.988028,-4.491022 V 32.239364 c 0,-0.448353 -0.201347,-0.873503 -0.547904,-1.157935 z"
     id="path6"
     inkscape:connector-curvature="0"
     style="fill:#ff8300;fill-opacity:0.94117647;stroke:#000000;stroke-width:0.89719057;stroke-opacity:1" />
</svg>
