<?xml version="1.0" encoding="UTF-8" standalone="no"?>
<!-- Generated by IcoMoon.io -->

<svg
   xmlns:dc="http://purl.org/dc/elements/1.1/"
   xmlns:cc="http://creativecommons.org/ns#"
   xmlns:rdf="http://www.w3.org/1999/02/22-rdf-syntax-ns#"
   xmlns:svg="http://www.w3.org/2000/svg"
   xmlns="http://www.w3.org/2000/svg"
   xmlns:sodipodi="http://sodipodi.sourceforge.net/DTD/sodipodi-0.dtd"
   xmlns:inkscape="http://www.inkscape.org/namespaces/inkscape"
   version="1.1"
   width="64"
   height="64"
   viewBox="0 0 64 64"
   id="svg2"
   inkscape:version="0.48.4 r9939"
   sodipodi:docname="0043-file-video.svg">
  <metadata
     id="metadata14">
    <rdf:RDF>
      <cc:Work
         rdf:about="">
        <dc:format>image/svg+xml</dc:format>
        <dc:type
           rdf:resource="http://purl.org/dc/dcmitype/StillImage" />
      </cc:Work>
    </rdf:RDF>
  </metadata>
  <defs
     id="defs12" />
  <sodipodi:namedview
     pagecolor="#ffffff"
     bordercolor="#666666"
     borderopacity="1"
     objecttolerance="10"
     gridtolerance="10"
     guidetolerance="10"
     inkscape:pageopacity="0"
     inkscape:pageshadow="2"
     inkscape:window-width="1631"
     inkscape:window-height="1026"
     id="namedview10"
     showgrid="false"
     inkscape:zoom="10.429825"
     inkscape:cx="9.9240248"
     inkscape:cy="24.816582"
     inkscape:window-x="49"
     inkscape:window-y="139"
     inkscape:window-maximized="1"
     inkscape:current-layer="svg2" />
  <rect
     style="fill:#ffffff;fill-opacity:1;stroke:none"
     id="rect2984"
     width="33.365852"
     height="52.637508"
     x="10.163162"
     y="6.1850319" />
  <rect
     style="fill:#ffffff;fill-opacity:1;stroke:none"
     id="rect2986"
     width="16.29941"
     height="38.543312"
     x="38.830948"
     y="20.470985" />
  <rect
     style="fill:#ffffff;fill-opacity:1;stroke:none"
     id="rect2988"
     width="12.847771"
     height="5.0815811"
     x="40.173252"
     y="14.526495" />
  <rect
     style="fill:#ffffff;fill-opacity:1;stroke:none"
     id="rect2990"
     width="7.670311"
     height="6.615643"
     x="40.940285"
     y="10.020187" />
  <path
     d="M 55.17772,16.688235 C 53.924152,14.978576 52.176561,12.979911 50.256469,11.060722 48.336377,9.1415332 46.338614,7.3939419 44.628956,6.1394697 41.71811,4.0044286 40.305587,3.7578693 39.496367,3.7578693 H 11.498789 c -2.4899779,0 -4.5157382,2.0257603 -4.5157382,4.5157384 V 57.043583 c 0,2.489979 2.0257603,4.515739 4.5157382,4.515739 h 41.544794 c 2.489978,0 4.515738,-2.02576 4.515738,-4.515739 v -35.22276 c 0,-0.80922 -0.246559,-2.22084 -2.381601,-5.132588 v 0 0 z m -7.475353,-3.073412 c 1.73314,1.733141 3.093281,3.296489 4.096679,4.593409 H 43.108958 V 9.5181452 c 1.29692,1.0033968 2.860269,2.3635378 4.593409,4.0966778 v 0 0 z m 6.244363,43.42876 c 0,0.489506 -0.413641,0.903148 -0.903147,0.903148 H 11.498789 c -0.489506,0 -0.903148,-0.413642 -0.903148,-0.903148 V 8.2736077 c 0,-0.489506 0.413642,-0.9031477 0.903148,-0.9031477 0,0 27.994868,0 27.997578,0 v 12.644068 c 0,0.997978 0.808317,1.806295 1.806296,1.806295 H 53.94673 v 35.22276 z"
     id="path4"
     style="fill:#0086b3;stroke:#000000;stroke-width:1;stroke-miterlimit:4;stroke-dasharray:none;fill-opacity:1;stroke-opacity:1"
     inkscape:connector-curvature="0" />
  <path
     d="M 17.29893,33.778325 H 35.563979 V 52.043374 H 17.29893 V 33.778325 z"
     id="path6"
     style="fill:#e65f58;fill-opacity:1;stroke:#000000;stroke-width:0.91325241;stroke-opacity:1"
     inkscape:connector-curvature="0" />
  <path
     d="m 35.563979,41.084345 10.959029,-7.30602 v 18.265049 l -10.959029,-7.30602 z"
     id="path8"
     style="fill:#e65f58;fill-opacity:1;stroke:#000000;stroke-width:0.91325241;stroke-opacity:1"
     inkscape:connector-curvature="0" />
</svg>
