<?xml version="1.0" encoding="UTF-8" standalone="no"?>
<!-- Generated by IcoMoon.io -->

<svg
   xmlns:dc="http://purl.org/dc/elements/1.1/"
   xmlns:cc="http://creativecommons.org/ns#"
   xmlns:rdf="http://www.w3.org/1999/02/22-rdf-syntax-ns#"
   xmlns:svg="http://www.w3.org/2000/svg"
   xmlns="http://www.w3.org/2000/svg"
   xmlns:sodipodi="http://sodipodi.sourceforge.net/DTD/sodipodi-0.dtd"
   xmlns:inkscape="http://www.inkscape.org/namespaces/inkscape"
   version="1.1"
   width="64"
   height="64"
   viewBox="0 0 64 64"
   id="svg2"
   inkscape:version="0.48.4 r9939"
   sodipodi:docname="0111-bubble2.svg">
  <metadata
     id="metadata10">
    <rdf:RDF>
      <cc:Work
         rdf:about="">
        <dc:format>image/svg+xml</dc:format>
        <dc:type
           rdf:resource="http://purl.org/dc/dcmitype/StillImage" />
      </cc:Work>
    </rdf:RDF>
  </metadata>
  <defs
     id="defs8" />
  <sodipodi:namedview
     pagecolor="#ffffff"
     bordercolor="#666666"
     borderopacity="1"
     objecttolerance="10"
     gridtolerance="10"
     guidetolerance="10"
     inkscape:pageopacity="0"
     inkscape:pageshadow="2"
     inkscape:window-width="1871"
     inkscape:window-height="1056"
     id="namedview6"
     showgrid="false"
     inkscape:zoom="3.6875"
     inkscape:cx="-9.8983051"
     inkscape:cy="32"
     inkscape:window-x="1729"
     inkscape:window-y="24"
     inkscape:window-maximized="1"
     inkscape:current-layer="svg2" />
  <path
     d="m 32.305589,12.686567 c -3.029385,0 -5.955527,0.477395 -8.69724,1.419832 -2.575816,0.885078 -4.870136,2.136365 -6.818544,3.719446 -3.6515,2.966733 -5.66256,6.782365 -5.66256,10.74448 0,2.222844 0.616819,4.377741 1.833691,6.406449 1.254818,2.091362 3.142338,4.00359 5.459601,5.529313 1.673972,1.102156 2.800836,2.865254 3.098216,4.847194 0.09971,0.66094 0.161485,1.328058 0.186193,1.992529 0.412095,-0.341501 0.813601,-0.708592 1.206283,-1.101274 1.332471,-1.332471 3.131747,-2.067536 4.99103,-2.067536 0.295614,0 0.593876,0.01853 0.891255,0.05648 1.156867,0.147366 2.338442,0.22149 3.512075,0.22149 3.029386,0 5.955527,-0.477395 8.69724,-1.419832 2.575816,-0.885078 4.870137,-2.137248 6.818545,-3.719446 3.651499,-2.966733 5.66256,-6.783247 5.66256,-10.74448 0,-3.961233 -2.011061,-7.776865 -5.66256,-10.74448 -1.948408,-1.583082 -4.241846,-2.834369 -6.818545,-3.719447 -2.741713,-0.941554 -5.666972,-1.419831 -8.69724,-1.419831 z m 0,-7.0594484 v 0 c 15.595204,0 28.237793,10.2723794 28.237793,22.9432064 0,12.670827 -12.642589,22.943207 -28.237793,22.943207 -1.497485,0 -2.967615,-0.0953 -4.402448,-0.277966 -6.065831,6.065831 -13.305295,7.152986 -20.3056204,7.312706 v -1.484249 c 3.7803344,-1.852223 7.0594484,-5.224874 7.0594484,-9.080216 0,-0.538282 -0.04147,-1.065976 -0.119128,-1.583081 C 8.1516873,42.194178 4.0677966,35.77008 4.0677966,28.570325 4.0677966,15.899498 16.710386,5.6271186 32.305589,5.6271186 z"
     id="path4"
     inkscape:connector-curvature="0"
     style="fill:#ffb40f;stroke:#000000;stroke-opacity:1;fill-opacity:0.94117647" />
</svg>
