<?xml version="1.0" encoding="UTF-8" standalone="no"?>
<!-- Generated by IcoMoon.io -->

<svg
   xmlns:dc="http://purl.org/dc/elements/1.1/"
   xmlns:cc="http://creativecommons.org/ns#"
   xmlns:rdf="http://www.w3.org/1999/02/22-rdf-syntax-ns#"
   xmlns:svg="http://www.w3.org/2000/svg"
   xmlns="http://www.w3.org/2000/svg"
   xmlns:sodipodi="http://sodipodi.sourceforge.net/DTD/sodipodi-0.dtd"
   xmlns:inkscape="http://www.inkscape.org/namespaces/inkscape"
   version="1.1"
   width="64"
   height="64"
   viewBox="0 0 64 64"
   id="svg2"
   inkscape:version="0.48.4 r9939"
   sodipodi:docname="0135-search.svg">
  <metadata
     id="metadata10">
    <rdf:RDF>
      <cc:Work
         rdf:about="">
        <dc:format>image/svg+xml</dc:format>
        <dc:type
           rdf:resource="http://purl.org/dc/dcmitype/StillImage" />
      </cc:Work>
    </rdf:RDF>
  </metadata>
  <defs
     id="defs8" />
  <sodipodi:namedview
     pagecolor="#ffffff"
     bordercolor="#666666"
     borderopacity="1"
     objecttolerance="10"
     gridtolerance="10"
     guidetolerance="10"
     inkscape:pageopacity="0"
     inkscape:pageshadow="2"
     inkscape:window-width="1871"
     inkscape:window-height="1056"
     id="namedview6"
     showgrid="false"
     inkscape:zoom="14.75"
     inkscape:cx="33.757185"
     inkscape:cy="28.745923"
     inkscape:window-x="1729"
     inkscape:window-y="24"
     inkscape:window-maximized="1"
     inkscape:current-layer="g3775" />
  <path
     d="M 57.437111,51.849435 44.589659,40.92317 c -1.327966,-1.194915 -2.748303,-1.744067 -3.89576,-1.690678 3.032201,-3.552541 4.864404,-8.161013 4.864404,-13.197452 0,-11.233045 -9.105928,-20.3389722 -20.338974,-20.3389722 -11.233045,0 -20.338973,9.1059272 -20.338973,20.3389722 0,11.233046 9.105928,20.338974 20.338973,20.338974 5.037286,0 9.645759,-1.832202 13.198299,-4.864404 -0.05339,1.147457 0.495763,2.567796 1.690677,3.895761 l 10.926267,12.847451 c 1.871185,2.078813 4.927116,2.254237 6.791521,0.38983 1.864407,-1.864405 1.688983,-4.920336 -0.38983,-6.791522 z M 25.220177,39.593509 c -7.488132,0 -13.559316,-6.070337 -13.559316,-13.559315 0,-7.48898 6.070336,-13.559316 13.559316,-13.559316 7.488979,0 13.559315,6.070336 13.559315,13.559316 0,7.488978 -6.070336,13.559315 -13.559315,13.559315 z"
     id="path4"
     inkscape:connector-curvature="0"
     style="fill:#00cc99;stroke:#000000;stroke-opacity:1;fill-opacity:1" />
  <g
     id="g3775"
     transform="matrix(0.28461432,0,0,0.28461432,16.191758,16.592211)"
     style="fill:#e65f58;fill-opacity:1">
    <path
       id="path3757"
       d="M 18.324,0 14,8.577 9.676,0 H 4.16 l 7.794,13.582 0.045,-0.027 V 24 h 4 V 13.555 L 16.044,13.582 23.838,0 z"
       inkscape:connector-curvature="0"
       style="fill:#00000f;fill-opacity:0.94117647" />
    <path
       id="path3759"
       d="m 30,8 c 1.084,0 2,0.916 2,2 v 8 c 0,1.084 -0.916,2 -2,2 -1.084,0 -2,-0.916 -2,-2 v -8 c 0,-1.084 0.916,-2 2,-2 z m 0,-4 c -3.3,0 -6,2.7 -6,6 v 8 c 0,3.3 2.7,6 6,6 3.3,0 6,-2.7 6,-6 V 10 C 36,6.7 33.3,4 30,4 v 0 z"
       inkscape:connector-curvature="0"
       style="fill:#00000f;fill-opacity:0.94117647" />
    <path
       id="path3761"
       d="m 48,4 v 15.748 c -1.745,1.456 -4,2.333 -4,-2.852 V 4 h -4 v 13.708 h 0.006 c 0.062,3.307 0.759,9.261 7.994,4.419 V 24 h 4 V 4 h -4 z"
       inkscape:connector-curvature="0"
       style="fill:#00000f;fill-opacity:0.94117647" />
    <path
       id="path3763"
       d="m 54,44 c -1.103,0 -2,0.897 -2,2 v 2 h 4 v -2 c 0,-1.103 -0.897,-2 -2,-2 z"
       inkscape:connector-curvature="0"
       style="fill:#e65f58;fill-opacity:1" />
    <path
       id="path3765"
       d="m 36,46 v 10.5 c 1.354,1.354 4,1.5 4,-0.5 0,-2 0,-7.375 0,-9.375 C 40,44.625 38,44 36,46 z"
       inkscape:connector-curvature="0"
       style="fill:#e65f58;fill-opacity:1" />
    <path
       id="path3767"
       d="M 63.673,36.346 C 63.498,34.042 62.67,32.162 61.187,30.706 59.704,29.25 57.807,28.456 55.495,28.326 51.134,28.109 41.154,28 32.388,28 23.622,28 12.932,28.109 8.571,28.326 6.259,28.456 4.362,29.25 2.879,30.706 1.396,32.162 0.567,34.042 0.393,36.346 0.131,41.041 0,42.743 0,45.09 c 0,2.347 0.131,5.868 0.393,10.563 0.174,2.304 1.003,4.184 2.486,5.64 1.483,1.456 3.38,2.249 5.692,2.38 4.361,0.217 15.051,0.326 23.817,0.326 8.766,0 18.746,-0.109 23.107,-0.326 2.312,-0.13 4.209,-0.924 5.692,-2.38 1.483,-1.456 2.312,-3.336 2.486,-5.64 C 63.891,51.741 64,48.22 64,45.09 64,41.96 63.891,40.258 63.673,36.346 z M 12,60 H 8 V 40 H 4 v -4 h 12 v 4 h -4 v 20 z m 16,0 h -4 v -1.873 c -7.604,4.268 -7.932,0.137 -7.994,-3.169 H 16 V 44 h 4 v 11.021 c 0,2.417 2.255,2.183 4,0.727 V 44 h 4 v 16 z m 16,-4.057 c 0,4.181 -4.282,5.4 -8,2.149 V 60 H 32 V 36 h 4 v 6.5 c 4,-4 8,-2.5 8,1.5 0,4 0,7.573 0,11.943 z M 60,48 v 2 h -8 v 4 c 0,1.103 0.897,2 2,2 1.103,0 2,-0.897 2,-2 v -2 h 4 v 2 c 0,3.308 -2.692,6 -6,6 -3.308,0 -6,-2.692 -6,-6 v -8 c 0,-3.308 2.692,-6 6,-6 3.308,0 6,2.692 6,6 v 2 z"
       inkscape:connector-curvature="0"
       style="fill:#e65f58;fill-opacity:1" />
  </g>
</svg>
