<?xml version="1.0" encoding="UTF-8" standalone="no"?>
<!-- Generated by IcoMoon.io -->

<svg
   xmlns:dc="http://purl.org/dc/elements/1.1/"
   xmlns:cc="http://creativecommons.org/ns#"
   xmlns:rdf="http://www.w3.org/1999/02/22-rdf-syntax-ns#"
   xmlns:svg="http://www.w3.org/2000/svg"
   xmlns="http://www.w3.org/2000/svg"
   xmlns:sodipodi="http://sodipodi.sourceforge.net/DTD/sodipodi-0.dtd"
   xmlns:inkscape="http://www.inkscape.org/namespaces/inkscape"
   version="1.1"
   width="64"
   height="64"
   viewBox="0 0 64 64"
   id="svg2"
   inkscape:version="0.48.4 r9939"
   sodipodi:docname="0149-cog.svg">
  <metadata
     id="metadata10">
    <rdf:RDF>
      <cc:Work
         rdf:about="">
        <dc:format>image/svg+xml</dc:format>
        <dc:type
           rdf:resource="http://purl.org/dc/dcmitype/StillImage" />
      </cc:Work>
    </rdf:RDF>
  </metadata>
  <defs
     id="defs8" />
  <sodipodi:namedview
     pagecolor="#ffffff"
     bordercolor="#666666"
     borderopacity="1"
     objecttolerance="10"
     gridtolerance="10"
     guidetolerance="10"
     inkscape:pageopacity="0"
     inkscape:pageshadow="2"
     inkscape:window-width="1360"
     inkscape:window-height="744"
     id="namedview6"
     showgrid="false"
     inkscape:zoom="8.8874512"
     inkscape:cx="12.196797"
     inkscape:cy="32"
     inkscape:window-x="0"
     inkscape:window-y="24"
     inkscape:window-maximized="1"
     inkscape:current-layer="svg2" />
  <path
     d="M 55.812806,37.493254 C 52.809033,32.290769 54.615053,25.623967 59.847057,22.595148 l -5.625589,-9.743925 c -1.607439,0.941921 -3.476076,1.482207 -5.469944,1.482207 -6.012019,0 -10.885323,-4.905507 -10.885323,-10.9568841 H 26.614127 c 0.01521,1.8677422 -0.451728,3.7614251 -1.450899,5.4932011 -3.003773,5.202485 -9.680415,6.971831 -14.919574,3.955535 l -5.6255898,9.743925 c 1.6199622,0.920453 3.0216634,2.269378 4.0190448,3.995788 2.998406,5.194434 1.2031194,11.847818 -4.0092052,14.883794 l 5.6255892,9.743925 c 1.602072,-0.933871 3.461764,-1.467895 5.445792,-1.467895 5.993234,0 10.854016,4.875093 10.885323,10.899635 h 11.251179 c -0.0045,-1.848957 0.462463,-3.722067 1.451794,-5.435058 2.998406,-5.194435 9.658946,-6.965569 14.894528,-3.969847 l 5.62559,-9.743925 C 58.198471,40.555171 56.805715,39.211613 55.8137,37.493254 z m -23.58114,6.097892 c -6.402026,0 -11.591988,-5.189067 -11.591988,-11.591093 0,-6.402027 5.189962,-11.591094 11.591988,-11.591094 6.402026,0 11.591094,5.189962 11.591094,11.591094 0,6.401131 -5.189068,11.591093 -11.591094,11.591093 z"
     id="path4"
     inkscape:connector-curvature="0"
     style="fill:#e0e0e0;stroke:#000000;stroke-opacity:1;fill-opacity:0.87843138" />
</svg>
