<?xml version="1.0" encoding="UTF-8" standalone="no"?>
<!-- Generated by IcoMoon.io -->

<svg
   xmlns:dc="http://purl.org/dc/elements/1.1/"
   xmlns:cc="http://creativecommons.org/ns#"
   xmlns:rdf="http://www.w3.org/1999/02/22-rdf-syntax-ns#"
   xmlns:svg="http://www.w3.org/2000/svg"
   xmlns="http://www.w3.org/2000/svg"
   xmlns:sodipodi="http://sodipodi.sourceforge.net/DTD/sodipodi-0.dtd"
   xmlns:inkscape="http://www.inkscape.org/namespaces/inkscape"
   version="1.1"
   width="64"
   height="64"
   viewBox="0 0 64 64"
   id="svg2"
   inkscape:version="0.48.4 r9939"
   sodipodi:docname="0270-cancel-circle.svg">
  <metadata
     id="metadata12">
    <rdf:RDF>
      <cc:Work
         rdf:about="">
        <dc:format>image/svg+xml</dc:format>
        <dc:type
           rdf:resource="http://purl.org/dc/dcmitype/StillImage" />
      </cc:Work>
    </rdf:RDF>
  </metadata>
  <defs
     id="defs10" />
  <sodipodi:namedview
     pagecolor="#ffffff"
     bordercolor="#666666"
     borderopacity="1"
     objecttolerance="10"
     gridtolerance="10"
     guidetolerance="10"
     inkscape:pageopacity="0"
     inkscape:pageshadow="2"
     inkscape:window-width="1871"
     inkscape:window-height="1056"
     id="namedview8"
     showgrid="true"
     inkscape:zoom="3.6875"
     inkscape:cx="-9.8983051"
     inkscape:cy="75.389831"
     inkscape:window-x="1729"
     inkscape:window-y="24"
     inkscape:window-maximized="1"
     inkscape:current-layer="svg2">
    <inkscape:grid
       type="xygrid"
       id="grid2989" />
  </sodipodi:namedview>
  <path
     d="M 32.271186,1.8983052 C 15.646584,1.8983052 2.1694915,15.375398 2.1694915,32 c 0,16.624602 13.4770925,30.101695 30.1016945,30.101695 16.624602,0 30.101695,-13.477093 30.101695,-30.101695 0,-16.624602 -13.477093,-30.1016948 -30.101695,-30.1016948 z m 0,54.5593218 C 18.763991,56.457627 7.8135593,45.507195 7.8135593,32 c 0,-13.507195 10.9504317,-24.457627 24.4576267,-24.457627 13.507195,0 24.457627,10.950432 24.457627,24.457627 0,13.507195 -10.950432,24.457627 -24.457627,24.457627 z"
     id="path4"
     inkscape:connector-curvature="0"
     style="fill:#e65f58;fill-opacity:1;stroke:#000000;stroke-opacity:1" />
  <path
     d="m 42.813559,16 -10,10 -10,-10 -6,6 10,10 -10,10 6,6 10,-10 10,10 6,-6 -10,-10 10,-10 z"
     id="path6"
     inkscape:connector-curvature="0"
     style="fill:#e66258;fill-opacity:1;stroke:#000000;stroke-opacity:1" />
</svg>
