<?xml version="1.0" encoding="UTF-8" standalone="no"?>
<!-- Generated by IcoMoon.io -->

<svg
   xmlns:dc="http://purl.org/dc/elements/1.1/"
   xmlns:cc="http://creativecommons.org/ns#"
   xmlns:rdf="http://www.w3.org/1999/02/22-rdf-syntax-ns#"
   xmlns:svg="http://www.w3.org/2000/svg"
   xmlns="http://www.w3.org/2000/svg"
   xmlns:sodipodi="http://sodipodi.sourceforge.net/DTD/sodipodi-0.dtd"
   xmlns:inkscape="http://www.inkscape.org/namespaces/inkscape"
   version="1.1"
   width="64"
   height="64"
   viewBox="0 0 64 64"
   id="svg2"
   inkscape:version="0.48.4 r9939"
   sodipodi:docname="0299-volume-mute2.svg">
  <metadata
     id="metadata12">
    <rdf:RDF>
      <cc:Work
         rdf:about="">
        <dc:format>image/svg+xml</dc:format>
        <dc:type
           rdf:resource="http://purl.org/dc/dcmitype/StillImage" />
      </cc:Work>
    </rdf:RDF>
  </metadata>
  <defs
     id="defs10" />
  <sodipodi:namedview
     pagecolor="#ffffff"
     bordercolor="#666666"
     borderopacity="1"
     objecttolerance="10"
     gridtolerance="10"
     guidetolerance="10"
     inkscape:pageopacity="0"
     inkscape:pageshadow="2"
     inkscape:window-width="1373"
     inkscape:window-height="553"
     id="namedview8"
     showgrid="false"
     inkscape:zoom="3.6875"
     inkscape:cx="-9.8983051"
     inkscape:cy="32"
     inkscape:window-x="2066"
     inkscape:window-y="207"
     inkscape:window-maximized="0"
     inkscape:current-layer="svg2" />
  <path
     d="M60 38.697v5.303h-5.303l-6.697-6.697-6.697 6.697h-5.303v-5.303l6.697-6.697-6.697-6.697v-5.303h5.303l6.697 6.697 6.697-6.697h5.303v5.303l-6.697 6.697 6.697 6.697z"
     fill="#000000"
     id="path4"
     style="fill:#16c2fb;fill-opacity:1;stroke:#000000;stroke-opacity:1" />
  <path
     d="m 30.067797,60 c -0.52,0 -1.032,-0.203 -1.415,-0.586 L 13.238797,44 H 6.0667966 c -1.105,0 -2,-0.895 -2,-2 V 22 c 0,-1.105 0.895,-2 2,-2 h 7.1720004 l 15.414,-15.414 c 0.572,-0.572 1.432,-0.743 2.18,-0.434 0.748,0.309 1.235,1.039 1.235,1.848 v 52 c 0,0.809 -0.487,1.538 -1.235,1.848 -0.247,0.102 -0.507,0.152 -0.765,0.152 z"
     id="path6"
     inkscape:connector-curvature="0"
     style="fill:#16c2fb;fill-opacity:1;stroke:#000000;stroke-opacity:1" />
</svg>
