<?xml version="1.0" encoding="UTF-8" standalone="no"?>
<!-- Generated by IcoMoon.io -->

<svg
   xmlns:dc="http://purl.org/dc/elements/1.1/"
   xmlns:cc="http://creativecommons.org/ns#"
   xmlns:rdf="http://www.w3.org/1999/02/22-rdf-syntax-ns#"
   xmlns:svg="http://www.w3.org/2000/svg"
   xmlns="http://www.w3.org/2000/svg"
   xmlns:sodipodi="http://sodipodi.sourceforge.net/DTD/sodipodi-0.dtd"
   xmlns:inkscape="http://www.inkscape.org/namespaces/inkscape"
   version="1.1"
   width="64"
   height="64"
   viewBox="0 0 64 64"
   id="svg2"
   inkscape:version="0.48.4 r9939"
   sodipodi:docname="0300-volume-increase.svg">
  <metadata
     id="metadata12">
    <rdf:RDF>
      <cc:Work
         rdf:about="">
        <dc:format>image/svg+xml</dc:format>
        <dc:type
           rdf:resource="http://purl.org/dc/dcmitype/StillImage" />
      </cc:Work>
    </rdf:RDF>
  </metadata>
  <defs
     id="defs10" />
  <sodipodi:namedview
     pagecolor="#ffffff"
     bordercolor="#666666"
     borderopacity="1"
     objecttolerance="10"
     gridtolerance="10"
     guidetolerance="10"
     inkscape:pageopacity="0"
     inkscape:pageshadow="2"
     inkscape:window-width="933"
     inkscape:window-height="1027"
     id="namedview8"
     showgrid="false"
     inkscape:zoom="3.6875"
     inkscape:cx="-9.8983051"
     inkscape:cy="32"
     inkscape:window-x="2664"
     inkscape:window-y="24"
     inkscape:window-maximized="0"
     inkscape:current-layer="svg2" />
  <path
     d="M 60.745763,35.288136 H 50.474576 V 45.559323 H 43.627118 V 35.288136 H 33.355932 V 28.440678 H 43.627118 V 18.169492 h 6.847458 v 10.271186 h 10.271187 v 6.847458 z"
     id="path4"
     inkscape:connector-curvature="0"
     style="fill:#16c2fb;stroke:#000000;stroke-opacity:1;fill-opacity:1" />
  <path
     d="m 27.898305,60 c -0.52,0 -1.032,-0.203 -1.415,-0.586 L 11.069305,44 H 3.8973051 c -1.105,0 -2,-0.895 -2,-2 V 22 c 0,-1.105 0.895,-2 2,-2 h 7.1719999 l 15.414,-15.414 c 0.572,-0.572 1.432,-0.743 2.18,-0.434 0.748,0.309 1.235,1.039 1.235,1.848 v 52 c 0,0.809 -0.487,1.538 -1.235,1.848 -0.247,0.102 -0.507,0.152 -0.765,0.152 z"
     id="path6"
     inkscape:connector-curvature="0"
     style="fill:#16c2fb;fill-opacity:1;stroke:#000000;stroke-opacity:1" />
</svg>
