<?xml version="1.0" encoding="UTF-8" standalone="no"?>
<!-- Generated by IcoMoon.io -->

<svg
   xmlns:dc="http://purl.org/dc/elements/1.1/"
   xmlns:cc="http://creativecommons.org/ns#"
   xmlns:rdf="http://www.w3.org/1999/02/22-rdf-syntax-ns#"
   xmlns:svg="http://www.w3.org/2000/svg"
   xmlns="http://www.w3.org/2000/svg"
   xmlns:sodipodi="http://sodipodi.sourceforge.net/DTD/sodipodi-0.dtd"
   xmlns:inkscape="http://www.inkscape.org/namespaces/inkscape"
   version="1.1"
   width="64"
   height="64"
   viewBox="0 0 64 64"
   id="svg2"
   inkscape:version="0.48.4 r9939"
   sodipodi:docname="0303-loop2.svg">
  <metadata
     id="metadata12">
    <rdf:RDF>
      <cc:Work
         rdf:about="">
        <dc:format>image/svg+xml</dc:format>
        <dc:type
           rdf:resource="http://purl.org/dc/dcmitype/StillImage" />
      </cc:Work>
    </rdf:RDF>
  </metadata>
  <defs
     id="defs10" />
  <sodipodi:namedview
     pagecolor="#ffffff"
     bordercolor="#666666"
     borderopacity="1"
     objecttolerance="10"
     gridtolerance="10"
     guidetolerance="10"
     inkscape:pageopacity="0"
     inkscape:pageshadow="2"
     inkscape:window-width="1871"
     inkscape:window-height="1056"
     id="namedview8"
     showgrid="false"
     inkscape:zoom="3.6875"
     inkscape:cx="-14.237288"
     inkscape:cy="32"
     inkscape:window-x="1729"
     inkscape:window-y="24"
     inkscape:window-maximized="1"
     inkscape:current-layer="svg2" />
  <path
     d="M 54.817047,11.121571 C 49.161358,4.9435018 41.033056,1.0681847 32,1.0681847 14.916939,1.0681847 1.0681846,14.924353 1.0681846,32.016561 H 6.8679001 C 6.8679001,18.129444 18.120315,6.8710053 32,6.8710053 c 7.432335,0 14.108775,3.2292697 18.709882,8.3599297 l -9.04369,9.048531 H 62.931815 V 3.0024583 l -8.114768,8.1191127 z"
     id="path4"
     style="fill:#ff8300;fill-opacity:1;stroke:#000000;stroke-width:0.96687794;stroke-opacity:1"
     inkscape:connector-curvature="0" />
  <path
     d="m 56.913447,31.981364 c 0,13.888978 -11.154517,25.148928 -24.913447,25.148928 -7.367674,0 -13.986025,-3.229703 -18.547104,-8.361051 l 8.965008,-9.049745 H 1.3372959 V 60.999357 L 9.3814647,52.879156 C 14.987948,59.059022 23.045533,62.93389 32,62.93389 c 16.934436,0 30.662704,-13.858026 30.662704,-30.952526 h -5.749257 z"
     id="path6"
     style="fill:#ff8300;fill-opacity:1;stroke:#000000;stroke-width:0.96272731;stroke-opacity:1"
     inkscape:connector-curvature="0" />
</svg>
