<?xml version="1.0" encoding="UTF-8" standalone="no"?>
<!-- Generated by IcoMoon.io -->

<svg
   xmlns:dc="http://purl.org/dc/elements/1.1/"
   xmlns:cc="http://creativecommons.org/ns#"
   xmlns:rdf="http://www.w3.org/1999/02/22-rdf-syntax-ns#"
   xmlns:svg="http://www.w3.org/2000/svg"
   xmlns="http://www.w3.org/2000/svg"
   xmlns:sodipodi="http://sodipodi.sourceforge.net/DTD/sodipodi-0.dtd"
   xmlns:inkscape="http://www.inkscape.org/namespaces/inkscape"
   version="1.1"
   width="64"
   height="64"
   viewBox="0 0 64 64"
   id="svg2"
   inkscape:version="0.48.4 r9939"
   sodipodi:docname="0410-youtube3.svg">
  <metadata
     id="metadata20">
    <rdf:RDF>
      <cc:Work
         rdf:about="">
        <dc:format>image/svg+xml</dc:format>
        <dc:type
           rdf:resource="http://purl.org/dc/dcmitype/StillImage" />
      </cc:Work>
    </rdf:RDF>
  </metadata>
  <defs
     id="defs18" />
  <sodipodi:namedview
     pagecolor="#ffffff"
     bordercolor="#666666"
     borderopacity="1"
     objecttolerance="10"
     gridtolerance="10"
     guidetolerance="10"
     inkscape:pageopacity="0"
     inkscape:pageshadow="2"
     inkscape:window-width="1631"
     inkscape:window-height="1026"
     id="namedview16"
     showgrid="false"
     inkscape:zoom="10.429825"
     inkscape:cx="26.055585"
     inkscape:cy="29.191489"
     inkscape:window-x="49"
     inkscape:window-y="139"
     inkscape:window-maximized="1"
     inkscape:current-layer="svg2" />
  <rect
     style="fill:#ffffff;fill-opacity:1;stroke:none"
     id="rect3765"
     width="45.254833"
     height="22.723295"
     x="9.6837683"
     y="34.756939" />
  <path
     d="M 21.45439,8.4065809 17.991525,15.275449 14.528661,8.4065809 h -4.417475 l 6.241806,10.8771101 0.03604,-0.02162 v 8.364852 h 3.203389 v -8.364852 l 0.03604,0.02162 6.241805,-10.8771101 z"
     id="path4"
     inkscape:connector-curvature="0"
     style="fill:#000000;stroke:none;stroke-opacity:1" />
  <path
     d="m 30.805085,14.81336 c 0.868118,0 1.601695,0.733576 1.601695,1.601695 v 6.40678 c 0,0.868118 -0.733577,1.601695 -1.601695,1.601695 -0.868119,0 -1.601695,-0.733577 -1.601695,-1.601695 v -6.40678 c 0,-0.868119 0.733576,-1.601695 1.601695,-1.601695 z m 0,-3.20339 C 28.162288,11.60997 26,13.772259 26,16.415055 v 6.40678 c 0,2.642796 2.162288,4.805085 4.805085,4.805085 2.642796,0 4.805084,-2.162289 4.805084,-4.805085 v -6.40678 c 0,-2.642796 -2.162288,-4.805085 -4.805084,-4.805085 v 0 z"
     id="path6"
     inkscape:connector-curvature="0"
     style="fill:#000000;stroke:none;stroke-opacity:1" />
  <path
     d="m 45.220339,11.60997 v 12.611746 c -1.397479,1.166034 -3.20339,1.868377 -3.20339,-2.284017 V 11.60997 h -3.20339 v 10.978017 h 0.0048 c 0.04965,2.648403 0.607844,7.416649 6.401975,3.538945 v 1.499988 h 3.20339 V 11.60997 h -3.20339 z"
     id="path8"
     inkscape:connector-curvature="0"
     style="fill:#000000;stroke:none;stroke-opacity:1" />
  <path
     d="m 50.025424,43.643869 c -0.883335,0 -1.601695,0.71836 -1.601695,1.601695 v 1.601695 h 3.20339 v -1.601695 c 0,-0.883335 -0.718361,-1.601695 -1.601695,-1.601695 z"
     id="path10"
     inkscape:connector-curvature="0"
     style="fill:#e65f58;stroke:none;stroke-opacity:1;fill-opacity:1" />
  <path
     d="m 35.610169,45.245564 v 8.408898 c 1.084348,1.084347 3.20339,1.201271 3.20339,-0.400424 0,-1.601695 0,-5.90625 0,-7.507945 0,-1.601695 -1.601695,-2.102224 -3.20339,-0.500529 z"
     id="path12"
     inkscape:connector-curvature="0"
     style="fill:#e65f58;stroke:none;stroke-opacity:1;fill-opacity:1" />
  <path
     d="M 57.772021,37.514182 C 57.631873,35.66903 56.968771,34.163436 55.781114,32.997403 54.593458,31.831369 53.07425,31.195496 51.222691,31.091386 47.730195,30.917602 39.737737,30.830309 32.717508,30.830309 c -7.020228,0 -15.581288,0.08729 -19.073783,0.261077 -1.85156,0.10411 -3.370767,0.739983 -4.5584242,1.906017 -1.1876567,1.166033 -1.8515593,2.671627 -1.9909067,4.516779 -0.2098221,3.759979 -0.3147331,5.123021 -0.3147331,7.00261 0,1.879589 0.104911,4.699373 0.3147331,8.459352 0.1393474,1.845153 0.80325,3.350746 1.9909067,4.51678 1.1876572,1.166034 2.7068642,1.801106 4.5584242,1.906017 3.492495,0.173784 12.053555,0.261076 19.073783,0.261076 7.020229,0 15.012687,-0.08729 18.505183,-0.261076 1.851559,-0.10411 3.370767,-0.739983 4.558423,-1.906017 1.187657,-1.166034 1.85156,-2.671627 1.990907,-4.51678 0.174585,-3.132915 0.261877,-5.952699 0.261877,-8.459352 0,-2.506652 -0.08729,-3.869694 -0.261877,-7.00261 z m -41.38219,18.943246 h -3.20339 V 40.440479 H 9.9830508 v -3.20339 H 19.59322 v 3.20339 h -3.203389 v 16.016949 z m 12.813559,0 H 26 v -1.499987 c -6.089644,3.418017 -6.352322,0.109716 -6.401975,-2.537886 h -0.0048 v -8.775686 h 3.20339 v 8.82614 c 0,1.935648 1.805911,1.74825 3.20339,0.582216 v -9.408356 h 3.20339 V 56.457428 z M 42.016949,53.20839 c 0,3.348343 -3.429229,4.324576 -6.40678,1.721021 v 1.528017 H 32.40678 V 37.237089 h 3.203389 v 5.205509 c 3.20339,-3.20339 6.40678,-2.002119 6.40678,1.201271 0,3.20339 0,6.064817 0,9.564521 z m 12.813559,-6.361131 v 1.601694 h -6.406779 v 3.20339 c 0,0.883335 0.71836,1.601695 1.601695,1.601695 0.883334,0 1.601695,-0.71836 1.601695,-1.601695 v -1.601695 h 3.203389 v 1.601695 c 0,2.649204 -2.155881,4.805085 -4.805084,4.805085 -2.649204,0 -4.805085,-2.155881 -4.805085,-4.805085 v -6.406779 c 0,-2.649204 2.155881,-4.805085 4.805085,-4.805085 2.649203,0 4.805084,2.155881 4.805084,4.805085 v 1.601695 z"
     id="path14"
     inkscape:connector-curvature="0"
     style="fill:#e65f58;stroke:none;stroke-opacity:1;fill-opacity:1" />
</svg>
