<?xml version="1.0" encoding="UTF-8" standalone="no"?>
<!-- Generated by IcoMoon.io -->

<svg
   xmlns:dc="http://purl.org/dc/elements/1.1/"
   xmlns:cc="http://creativecommons.org/ns#"
   xmlns:rdf="http://www.w3.org/1999/02/22-rdf-syntax-ns#"
   xmlns:svg="http://www.w3.org/2000/svg"
   xmlns="http://www.w3.org/2000/svg"
   xmlns:sodipodi="http://sodipodi.sourceforge.net/DTD/sodipodi-0.dtd"
   xmlns:inkscape="http://www.inkscape.org/namespaces/inkscape"
   version="1.1"
   width="64"
   height="64"
   viewBox="0 0 64 64"
   id="svg2"
   inkscape:version="0.48.4 r9939"
   sodipodi:docname="0126-spinner4.svg">
  <metadata
     id="metadata10">
    <rdf:RDF>
      <cc:Work
         rdf:about="">
        <dc:format>image/svg+xml</dc:format>
        <dc:type
           rdf:resource="http://purl.org/dc/dcmitype/StillImage" />
        <dc:title></dc:title>
      </cc:Work>
    </rdf:RDF>
  </metadata>
  <defs
     id="defs8" />
  <sodipodi:namedview
     pagecolor="#ffffff"
     bordercolor="#666666"
     borderopacity="1"
     objecttolerance="10"
     gridtolerance="10"
     guidetolerance="10"
     inkscape:pageopacity="0"
     inkscape:pageshadow="2"
     inkscape:window-width="1631"
     inkscape:window-height="1026"
     id="namedview6"
     showgrid="false"
     inkscape:zoom="3.6875"
     inkscape:cx="-93.694915"
     inkscape:cy="32"
     inkscape:window-x="49"
     inkscape:window-y="139"
     inkscape:window-maximized="1"
     inkscape:current-layer="svg2" />
  <path
     d="m 14.576271,32.271186 c 0,-0.68361 0.03952,-1.358237 0.114085,-2.022084 L 4.3050508,26.875068 c -0.3323728,1.748101 -0.5084406,3.551898 -0.5084406,5.397017 0,8.266203 3.4899153,15.715847 9.0755758,20.960152 L 19.288779,44.401 C 16.362102,41.20483 14.576271,36.947763 14.576271,32.272085 z m 35.932203,0 c 0,4.67478 -1.78583,8.932746 -4.712508,12.128916 l 6.416593,8.831237 c 5.585661,-5.244305 9.075576,-12.693949 9.075576,-20.960153 0,-1.845118 -0.176067,-3.648915 -0.50844,-5.397017 L 50.39439,30.248203 c 0.07456,0.663848 0.114084,1.338475 0.114084,2.022085 z M 36.135593,14.664407 c 5.161661,1.047423 9.518441,4.308271 12.039983,8.748593 L 58.560881,20.038966 C 54.451135,11.31283 46.083424,4.9887628 36.135593,3.7482034 V 14.664407 z m -19.226424,8.749491 c 2.521543,-4.440322 6.878322,-7.701169 12.039983,-8.748593 V 3.7491017 C 19.001322,4.9896611 10.63361,11.313729 6.5238644,20.039864 L 16.909169,23.413898 z M 39.98483,48.627525 c -2.267322,1.033949 -4.787966,1.609763 -7.442457,1.609763 -2.654492,0 -5.174238,-0.576712 -7.442458,-1.609763 l -6.416593,8.832136 c 4.109746,2.266424 8.833932,3.557288 13.859051,3.557288 5.025118,0 9.748406,-1.290864 13.859051,-3.557288 L 39.98483,48.627525 z"
     id="path4"
     inkscape:connector-curvature="0"
     style="fill:#00cc99;fill-opacity:1;stroke:#000000;stroke-opacity:1;stroke-width:1.50000000000000000;stroke-miterlimit:4;stroke-dasharray:none" />
</svg>
