<?xml version="1.0" encoding="UTF-8" standalone="no"?>
<!-- Generated by IcoMoon.io -->

<svg
   xmlns:dc="http://purl.org/dc/elements/1.1/"
   xmlns:cc="http://creativecommons.org/ns#"
   xmlns:rdf="http://www.w3.org/1999/02/22-rdf-syntax-ns#"
   xmlns:svg="http://www.w3.org/2000/svg"
   xmlns="http://www.w3.org/2000/svg"
   xmlns:sodipodi="http://sodipodi.sourceforge.net/DTD/sodipodi-0.dtd"
   xmlns:inkscape="http://www.inkscape.org/namespaces/inkscape"
   version="1.1"
   width="64"
   height="64"
   viewBox="0 0 64 64"
   id="svg2"
   inkscape:version="0.48.4 r9939"
   sodipodi:docname="shutDown.svg">
  <metadata
     id="metadata10">
    <rdf:RDF>
      <cc:Work
         rdf:about="">
        <dc:format>image/svg+xml</dc:format>
        <dc:type
           rdf:resource="http://purl.org/dc/dcmitype/StillImage" />
        <dc:title></dc:title>
      </cc:Work>
    </rdf:RDF>
  </metadata>
  <defs
     id="defs8" />
  <sodipodi:namedview
     pagecolor="#ffffff"
     bordercolor="#666666"
     borderopacity="1"
     objecttolerance="10"
     gridtolerance="10"
     guidetolerance="10"
     inkscape:pageopacity="0"
     inkscape:pageshadow="2"
     inkscape:window-width="1631"
     inkscape:window-height="1026"
     id="namedview6"
     showgrid="true"
     inkscape:snap-grids="true"
     inkscape:snap-global="false"
     inkscape:zoom="15.563549"
     inkscape:cx="35.180577"
     inkscape:cy="30.409899"
     inkscape:window-x="49"
     inkscape:window-y="139"
     inkscape:window-maximized="1"
     inkscape:current-layer="svg2">
    <inkscape:grid
       type="xygrid"
       id="grid3768" />
  </sodipodi:namedview>
  <path
     d="m 32.497647,4.3418123 c -15.06162,0 -27.2716494,12.2100287 -27.2716494,27.2716487 0,15.061621 12.2100294,27.271649 27.2716494,27.271649 15.061621,0 27.27165,-12.210028 27.27165,-27.271649 0,-15.06162 -12.210029,-27.2716487 -27.27165,-27.2716487 z m 0,49.4298637 c -12.2373,0 -22.158215,-9.920915 -22.158215,-22.158215 0,-12.237301 9.920915,-22.1582146 22.158215,-22.1582146 12.237301,0 22.158215,9.9209136 22.158215,22.1582146 0,12.2373 -9.920914,22.158215 -22.158215,22.158215 z m 0.374828,-30.264744 -1.53494,-1.927581 -0.06425,20.06822 0.82816,-0.963791 z m 3.034129,-2.120339 -1.79195,0.321263 -0.06425,18.590408 1.856203,1.542065 z"
     id="path4"
     inkscape:connector-curvature="0"
     style="fill:#e65f58;fill-opacity:1;stroke:#000000;stroke-opacity:1"
     sodipodi:nodetypes="sssssssssscccccccccc" />
  <rect
     style="fill:#e65f58;fill-opacity:1;stroke:#000000;stroke-opacity:1"
     id="rect3766"
     width="6.7256031"
     height="24.841503"
     x="29.274883"
     y="19.197952" />
</svg>
