<?xml version="1.0" encoding="UTF-8" standalone="no"?>
<svg width="60px" height="60px" viewBox="0 0 60 60" version="1.1" xmlns="http://www.w3.org/2000/svg" xmlns:xlink="http://www.w3.org/1999/xlink" xmlns:sketch="http://www.bohemiancoding.com/sketch/ns">
    <!-- Generator: Sketch 3.2.2 (9983) - http://www.bohemiancoding.com/sketch -->
    <title>Musicbox</title>
    <desc>Created with Sketch.</desc>
    <defs></defs>
    <g id="colored" stroke="none" stroke-width="1" fill="none" fill-rule="evenodd" sketch:type="MSPage">
        <g id="Tech_sliced" sketch:type="MSLayerGroup" transform="translate(0.000000, -1440.000000)"></g>
        <g id="Tech" sketch:type="MSLayerGroup" transform="translate(2.000000, -1449.000000)" stroke-width="2">
            <g id="Musicbox" transform="translate(1.000000, 1452.000000)" sketch:type="MSShapeGroup">
                <rect id="Rectangle-581" stroke="#314E55" fill="#EAEAEA" x="10" y="32" width="28" height="21"></rect>
                <path d="M7.5,33 L40.5151482,33" id="Line" stroke="#314E55" stroke-linecap="round"></path>
                <path d="M7.5,52 L40.5151482,52" id="Line" stroke="#314E55" stroke-linecap="round"></path>
                <path d="M11.065731,39.0840664 L5.0723834,39.0840664 L5.0723834,43 L0,43" id="Path-1170" stroke="#535353"></path>
                <path d="M23,17.688058 L39.8787688,21.7853038 C41.0048846,26.0998874 43.1006208,29 45.5,29 C49.0898509,29 52,22.5081289 52,14.5 C52,6.49187113 49.0898509,0 45.5,0 C42.9021959,0 40.660333,3.39961612 39.6196552,8.31330461 L39.6196542,8.31330938 L23,12.3476562 L23,17.688058 Z" id="Oval-553" stroke="#314E55" fill="#E4AD40"></path>
                <rect id="Rectangle-583" stroke="#314E55" fill="#D8D8D8" x="15" y="23" width="6" height="10"></rect>
                <path d="M23.5,15 L18.5,15" id="Line" stroke="#314E55" stroke-linecap="square"></path>
                <path d="M18,15.5 L18,23.5" id="Line" stroke="#314E55" stroke-linecap="square"></path>
                <path d="M41.0491793,13.0287051 C41.0167637,13.6727649 41,14.3309009 41,15 C41,15.7747367 41.0224749,16.5347753 41.0656987,17.2752831" id="Oval-554" stroke="#314E55"></path>
            </g>
        </g>
    </g>
</svg>