<?xml version="1.0" encoding="UTF-8" standalone="no"?>
<svg width="60px" height="60px" viewBox="0 0 60 60" version="1.1" xmlns="http://www.w3.org/2000/svg" xmlns:xlink="http://www.w3.org/1999/xlink" xmlns:sketch="http://www.bohemiancoding.com/sketch/ns">
    <!-- Generator: Sketch 3.2.2 (9983) - http://www.bohemiancoding.com/sketch -->
    <title>Nightphoto</title>
    <desc>Created with Sketch.</desc>
    <defs></defs>
    <g id="colored" stroke="none" stroke-width="1" fill="none" fill-rule="evenodd" sketch:type="MSPage">
        <g id="Photo_sliced" sketch:type="MSLayerGroup" transform="translate(-240.000000, -960.000000)"></g>
        <g id="Photo" sketch:type="MSLayerGroup" transform="translate(-239.000000, -957.000000)" stroke="#314E55" stroke-width="2" stroke-linecap="round" stroke-linejoin="round">
            <g id="Nightphoto" transform="translate(245.000000, 963.000000)" sketch:type="MSShapeGroup">
                <rect id="Rectangle-2675" fill="#EAEAEA" x="0" y="0" width="48" height="48"></rect>
                <path d="M5,28.5 L16.5,19.5 L21,33.5 L26,28.5 L32.5,43 L5,43" id="Path-5920" fill="#C59981"></path>
                <rect id="Rectangle-2677" x="5" y="5" width="38" height="38"></rect>
                <path d="M33.6283939,25 C36.2370048,23.5376664 38,20.7461838 38,17.5429316 C38,12.8248008 34.1751992,9 29.4570684,9 C26.2538162,9 23.4623336,10.7629952 22,13.3716061 C23.2336615,12.6800409 24.6564469,12.2857429 26.1713255,12.2857429 C30.8894563,12.2857429 34.7142571,16.1105437 34.7142571,20.8286745 C34.7142571,22.3435531 34.3199591,23.7663385 33.6283939,25 Z" id="Oval-1932" fill="#DBCF56"></path>
            </g>
        </g>
    </g>
</svg>