<?xml version="1.0" encoding="UTF-8" standalone="no"?>
<svg width="60px" height="60px" viewBox="0 0 60 60" version="1.1" xmlns="http://www.w3.org/2000/svg" xmlns:xlink="http://www.w3.org/1999/xlink" xmlns:sketch="http://www.bohemiancoding.com/sketch/ns">
    <!-- Generator: Sketch 3.2.2 (9983) - http://www.bohemiancoding.com/sketch -->
    <title>Smallsquares</title>
    <desc>Created with Sketch.</desc>
    <defs></defs>
    <g id="colored" stroke="none" stroke-width="1" fill="none" fill-rule="evenodd" sketch:type="MSPage">
        <g id="Interface_sliced" sketch:type="MSLayerGroup" transform="translate(-840.000000, -360.000000)"></g>
        <g id="Interface" sketch:type="MSLayerGroup" transform="translate(-837.000000, -355.000000)" stroke="#314E55" stroke-width="2" stroke-linecap="round" stroke-linejoin="round">
            <g id="Smallsquares" transform="translate(841.000000, 359.000000)" sketch:type="MSShapeGroup">
                <rect id="Rectangle-2140" fill="#D8D8D8" x="39" y="0" width="13" height="13"></rect>
                <rect id="Rectangle-2140" fill="#EAEAEA" x="39" y="13" width="13" height="13"></rect>
                <rect id="Rectangle-2144" fill="#EAEAEA" x="26" y="0" width="13" height="13"></rect>
                <rect id="Rectangle-2143" fill="#D8D8D8" x="26" y="13" width="13" height="13"></rect>
                <rect id="Rectangle-2146" fill="#D8D8D8" x="13" y="0" width="13" height="13"></rect>
                <rect id="Rectangle-2145" fill="#EAEAEA" x="13" y="13" width="13" height="13"></rect>
                <rect id="Rectangle-2148" fill="#EAEAEA" x="0" y="0" width="13" height="13"></rect>
                <rect id="Rectangle-2147" fill="#D8D8D8" x="0" y="13" width="13" height="13"></rect>
                <rect id="Rectangle-2156" fill="#D8D8D8" x="39" y="26" width="13" height="13"></rect>
                <rect id="Rectangle-2149" fill="#EAEAEA" x="39" y="39" width="13" height="13"></rect>
                <rect id="Rectangle-2150" fill="#EAEAEA" x="26" y="26" width="13" height="13"></rect>
                <rect id="Rectangle-2151" fill="#D8D8D8" x="26" y="39" width="13" height="13"></rect>
                <rect id="Rectangle-2152" fill="#D8D8D8" x="13" y="26" width="13" height="13"></rect>
                <rect id="Rectangle-2153" fill="#EAEAEA" x="13" y="39" width="13" height="13"></rect>
                <rect id="Rectangle-2154" fill="#EAEAEA" x="0" y="26" width="13" height="13"></rect>
                <rect id="Rectangle-2155" fill="#D8D8D8" x="0" y="39" width="13" height="13"></rect>
            </g>
        </g>
    </g>
</svg>