<?xml version="1.0" encoding="UTF-8" standalone="no"?>
<svg width="60px" height="60px" viewBox="0 0 60 60" version="1.1" xmlns="http://www.w3.org/2000/svg" xmlns:xlink="http://www.w3.org/1999/xlink" xmlns:sketch="http://www.bohemiancoding.com/sketch/ns">
    <!-- Generator: Sketch 3.2.2 (9983) - http://www.bohemiancoding.com/sketch -->
    <title>HDD</title>
    <desc>Created with Sketch.</desc>
    <defs></defs>
    <g id="colored" stroke="none" stroke-width="1" fill="none" fill-rule="evenodd" sketch:type="MSPage">
        <g id="Tech_sliced" sketch:type="MSLayerGroup" transform="translate(-360.000000, -1200.000000)"></g>
        <g id="Tech" sketch:type="MSLayerGroup" transform="translate(-358.000000, -1209.000000)" stroke="#314E55" stroke-width="2">
            <g id="HDD" transform="translate(366.000000, 1212.000000)" sketch:type="MSShapeGroup">
                <rect id="Rectangle-528" fill="#EAEAEA" x="0" y="0" width="45" height="55"></rect>
                <circle id="Oval-533" fill="#73C9C9" cx="22.5" cy="20.5" r="16.5"></circle>
                <circle id="Oval-534" fill="#E4AD40" cx="22.5" cy="20.5" r="5.5"></circle>
                <circle id="Oval-535" cx="41" cy="4" r="1"></circle>
                <circle id="Oval-536" cx="41" cy="51" r="1"></circle>
                <circle id="Oval-538" cx="4" cy="4" r="1"></circle>
                <circle id="Oval-537" cx="4" cy="51" r="1"></circle>
                <circle id="Oval-540" cx="9" cy="43" r="1"></circle>
                <path d="M21.7992342,45.7452138 L18,22 L14.2007658,45.7452138 C14.0704952,46.1398643 14,46.5616996 14,47 C14,49.209139 15.790861,51 18,51 C20.209139,51 22,49.209139 22,47 C22,46.5616996 21.9295048,46.1398643 21.7992342,45.7452138 Z" id="Triangle-21" stroke-linecap="round" stroke-linejoin="round" fill="#E65F58" transform="translate(18.000000, 36.500000) rotate(-306.000000) translate(-18.000000, -36.500000) "></path>
            </g>
        </g>
    </g>
</svg>